HIERARCHY
ROOT Hips
{
	OFFSET 0.000000 8.830580 0.000000
	CHANNELS 6 Xposition Yposition Zposition Zrotation Yrotation Xrotation 
	JOINT Spine
	{
		OFFSET 0.000000 0.010000 0.000000
		CHANNELS 3 Zrotation Yrotation Xrotation
		JOINT Spine1
		{
			OFFSET 0.000000 2.459130 0.000000
			CHANNELS 3 Zrotation Yrotation Xrotation
			JOINT Neck
			{
				OFFSET 0.000000 2.484630 0.000000
				CHANNELS 3 Zrotation Yrotation Xrotation
				JOINT Head_virtual
				{
					OFFSET 0.000000 0.000000 0.000000
					CHANNELS 3 Zrotation Yrotation Xrotation
					JOINT Head
					{
						OFFSET 0.000000 0.927525 0.000000
						CHANNELS 3 Zrotation Yrotation Xrotation
						End Site
						{
							OFFSET 0.000000 0.000000 0.000000
						}
					}
				}
				JOINT LeftUpArm_virtual
				{
					OFFSET 0.000000 0.000000 0.000000
					CHANNELS 3 Zrotation Yrotation Xrotation
					JOINT LeftUpArm
					{
						OFFSET 1.248820 0.000000 0.000000
						CHANNELS 3 Zrotation Yrotation Xrotation
						JOINT LeftForeArm
						{
							OFFSET 2.597580 0.000000 0.000000
							CHANNELS 3 Zrotation Yrotation Xrotation
							JOINT LeftHand
							{
								OFFSET 2.455420 0.000000 0.000000
								CHANNELS 3 Zrotation Yrotation Xrotation
								End Site
								{
									OFFSET 0.000000 0.000000 0.000000
								}
							}
						}
					}
				}
				JOINT RightUpArm_virtual
				{
					OFFSET -0.000000 -0.000000 -0.000000
					CHANNELS 3 Zrotation Yrotation Xrotation
					JOINT RightUpArm
					{
						OFFSET -1.248820 -0.000000 -0.000000
						CHANNELS 3 Zrotation Yrotation Xrotation
						JOINT RightForeArm
						{
							OFFSET -2.597580 -0.000000 -0.000000
							CHANNELS 3 Zrotation Yrotation Xrotation
							JOINT RightHand
							{
								OFFSET -2.455420 -0.000000 -0.000000
								CHANNELS 3 Zrotation Yrotation Xrotation
								End Site
								{
									OFFSET 0.000000 0.000000 0.000000
								}
							}
						}
					}
				}
			}
		}
	}
	JOINT LeftUpLeg
	{
		OFFSET 1.271939 0.000000 0.000000
		CHANNELS 3 Zrotation Yrotation Xrotation
		JOINT LeftLowLeg
		{
			OFFSET 0.000000 -4.342910 0.000000
			CHANNELS 3 Zrotation Yrotation Xrotation
			JOINT LeftFoot
			{
				OFFSET 0.000000 -4.487670 0.000000
				CHANNELS 3 Zrotation Yrotation Xrotation
				JOINT LeftToeBase
				{
					OFFSET 0.000000 0.000000 1.515070
					CHANNELS 3 Zrotation Yrotation Xrotation
					End Site
					{
						OFFSET 0.000000 0.000000 0.000000
					}
				}
			}
		}
	}
	JOINT RightUpLeg
	{
		OFFSET -1.271939 0.000000 0.000000
		CHANNELS 3 Zrotation Yrotation Xrotation
		JOINT RightLowLeg
		{
			OFFSET 0.000000 -4.342910 0.000000
			CHANNELS 3 Zrotation Yrotation Xrotation
			JOINT RightFoot
			{
				OFFSET 0.000000 -4.487670 0.000000
				CHANNELS 3 Zrotation Yrotation Xrotation
				JOINT RightToeBase
				{
					OFFSET 0.000000 0.000000 1.515070
					CHANNELS 3 Zrotation Yrotation Xrotation
					End Site
					{
						OFFSET 0.000000 0.000000 0.000000
					}
				}
			}
		}
	}
}
MOTION
Frames: 16
Frame Time: 0.041667
-16.368253 8.867133 36.381669 -179.815790 -3.139313 176.781273 3.041109 -5.447784 -10.868886 -2.620669 7.127437 26.990068 0.000000 0.000000 0.000000 -19.342353 19.700453 20.002086 -27.530981 10.078836 -73.139425 -18.652201 4.672110 3.237640 -35.254700 22.105200 26.632996 0.000000 -86.393700 0.000000 4.363200 13.936600 13.941200 23.559799 -6.781880 0.056890 35.431599 -10.885800 46.049400 0.000000 65.532700 0.000000 -19.479799 5.385150 -31.312000 -7.850739 -10.507302 -4.064232 0.000000 0.000000 20.599501 -1.003594 12.196153 -5.451602 0.000000 0.000000 -10.890730 11.484297 9.109961 -20.281242 0.000000 0.000000 9.970690 7.463958 -19.064915 10.212923 0.000000 0.000000 -27.083300 
-16.366421 8.880380 36.390229 -179.345696 -3.442414 176.849072 3.044391 -5.440701 -10.629741 -2.431342 7.222979 27.354678 0.000000 0.000000 0.000000 -19.003746 19.393683 20.107372 -27.459556 9.964885 -73.480517 -18.770201 4.314340 3.478000 -35.304501 21.889999 27.746002 0.000000 -84.712097 0.000000 4.607910 11.250500 9.947070 23.700899 -6.737210 0.013242 35.163101 -10.510900 45.410099 0.000000 65.493698 0.000000 -19.642200 5.745220 -31.100100 -7.454037 -11.924755 -4.060437 0.000000 0.000000 20.349001 -1.461775 13.044677 -5.379515 0.000000 0.000000 -10.990930 9.817375 10.997627 -19.810598 0.000000 0.000000 6.246430 6.598523 -19.557144 10.044880 0.000000 0.000000 -26.449200 
-16.362848 8.893246 36.400483 -178.817366 -3.838124 177.076718 3.096521 -5.461133 -10.493767 -2.287815 7.250600 27.587835 0.000000 0.000000 0.000000 -18.651511 19.053906 20.211239 -27.385285 9.933671 -73.667526 -18.958900 3.945880 3.764390 -35.292999 21.613400 29.179993 0.000000 -83.208603 0.000000 6.714870 7.929650 6.393600 23.771000 -6.761340 -0.166020 34.943901 -10.065300 45.424198 0.000000 65.278397 0.000000 -21.433500 6.847780 -28.513100 -6.810250 -12.105680 -4.399736 0.000000 0.000000 20.344801 -1.665960 12.673374 -5.353907 0.000000 0.000000 -11.080030 8.376177 12.060649 -19.667894 0.000000 0.000000 3.344300 6.617789 -19.366304 9.871065 0.000000 0.000000 -25.934100 
-16.356218 8.906924 36.406913 -178.313115 -4.033117 177.451703 3.124353 -5.379218 -10.545570 -2.152208 7.387230 27.779228 0.000000 0.000000 0.000000 -18.232132 18.640004 20.269798 -27.404982 10.077380 -73.619977 -19.166901 3.674500 4.153420 -35.367298 21.098400 30.677002 0.000000 -81.757797 0.000000 10.421000 4.930800 2.063300 23.944099 -6.782710 -0.239196 34.520699 -9.538940 45.574799 0.000000 65.219704 0.000000 -22.418301 7.810650 -26.025700 -6.066897 -11.434614 -4.842989 0.000000 0.000000 20.283001 -1.666300 11.725304 -5.409709 0.000000 0.000000 -10.896510 7.157873 12.571153 -19.841788 0.000000 0.000000 1.500120 9.629143 -18.404356 9.055277 0.000000 0.000000 -25.769900 
-16.348625 8.924059 36.412074 -177.842953 -4.155588 177.816854 3.087656 -5.349651 -10.668109 -1.925735 7.551559 28.082210 0.000000 0.000000 0.000000 -17.927886 18.250159 20.333832 -27.456511 10.141589 -73.488703 -19.487600 3.571430 4.200670 -35.532799 20.428600 31.890991 0.000000 -80.158798 0.000000 13.076800 2.409210 -3.211720 24.069099 -6.659370 -0.151953 34.082298 -8.973290 46.044800 0.000000 65.182999 0.000000 -24.053801 8.245460 -25.848900 -5.358345 -11.013778 -5.101394 0.000000 0.000000 19.911900 -2.588988 10.556517 -5.440146 0.000000 0.000000 -10.936180 6.392909 11.995949 -20.134874 0.000000 0.000000 0.733719 12.824708 -16.645780 8.668274 0.000000 0.000000 -25.498500 
-16.338516 8.941703 36.417657 -177.282473 -4.144247 178.310600 3.198845 -5.166239 -10.856737 -1.854305 7.720386 28.209427 0.000000 0.000000 0.000000 -17.619778 17.917148 20.507223 -27.506632 10.225975 -73.476892 -19.710300 3.568590 4.199630 -35.852600 19.601801 32.872009 0.000000 -78.486504 0.000000 16.447399 -0.057989 -6.782250 24.251699 -6.442480 0.013440 33.584499 -8.598720 46.916199 0.000000 65.149399 0.000000 -26.741699 8.430330 -25.088499 -4.461994 -9.259430 -5.669279 0.000000 0.000000 19.847300 -2.780515 8.590801 -5.418372 0.000000 0.000000 -10.780290 6.010003 10.757119 -20.749167 0.000000 0.000000 1.058110 14.312185 -14.130426 9.347038 0.000000 0.000000 -25.448200 
-16.329896 8.961595 36.421072 -176.840684 -4.021188 178.795281 3.262793 -4.894539 -11.086336 -1.840429 7.965599 28.354424 0.000000 0.000000 0.000000 -17.299151 17.552796 20.832450 -27.518204 10.175350 -73.667997 -20.041100 3.553340 4.218400 -36.051800 18.622700 33.850006 0.000000 -77.093903 0.000000 22.045000 -1.742530 -10.018000 24.439199 -6.233970 0.259295 33.070000 -8.370100 47.750801 0.000000 65.206200 0.000000 -29.656200 7.984180 -24.328600 -3.810996 -9.034183 -5.819740 0.000000 0.000000 19.105600 -3.515561 8.011478 -5.329665 0.000000 0.000000 -10.821980 5.543270 9.625332 -21.482906 0.000000 0.000000 2.187350 14.234749 -12.024805 10.332181 0.000000 0.000000 -25.542600 
-16.319199 8.980247 36.423447 -176.412903 -3.924485 179.388899 3.277105 -4.649143 -11.434327 -1.739064 8.254404 28.478300 0.000000 0.000000 0.000000 -16.999437 17.170313 21.090613 -27.540414 10.098358 -73.811113 -20.345100 3.583660 4.233200 -36.335999 17.504999 34.369995 0.000000 -76.031197 0.000000 25.732800 -2.416240 -14.326800 24.492599 -6.043250 0.333530 32.739201 -8.505900 48.338699 0.000000 65.375198 0.000000 -32.966499 6.696570 -25.751400 -3.126690 -8.547540 -6.148056 0.000000 0.000000 18.521799 -4.778472 6.945825 -5.497066 0.000000 0.000000 -10.172060 4.964033 8.903300 -22.358270 0.000000 0.000000 3.800170 13.691653 -10.904363 11.018233 0.000000 0.000000 -25.500100 
-16.308778 8.998042 36.425126 -175.923502 -3.866611 179.947444 3.419739 -4.316784 -11.757128 -1.763020 8.499582 28.480448 0.000000 0.000000 0.000000 -16.724850 16.850705 21.406658 -27.483532 10.086499 -73.916985 -20.597000 3.529750 4.194240 -36.654301 16.586599 34.358002 0.000000 -75.332100 0.000000 27.343800 -2.390040 -16.153000 24.561100 -5.878890 0.256233 32.549500 -8.997150 48.211498 0.000000 65.625702 0.000000 -34.660599 5.505580 -28.688000 -2.407556 -8.060303 -6.437541 0.000000 0.000000 17.908300 -5.389141 6.141341 -5.385398 0.000000 0.000000 -10.654350 4.334762 8.653518 -23.145223 0.000000 0.000000 5.668710 12.874215 -10.853264 11.545024 0.000000 0.000000 -25.403600 
-16.297933 9.014582 36.424590 -175.397078 -3.927913 -179.562023 3.602813 -4.013217 -11.983419 -1.876567 8.646435 28.332116 0.000000 0.000000 0.000000 -16.361582 16.435112 21.768322 -27.478508 10.076654 -74.080690 -20.825500 3.478790 4.021250 -36.816700 15.915900 34.352997 0.000000 -74.933296 0.000000 28.408701 -2.709290 -16.290800 24.684700 -5.946820 0.323171 32.433998 -9.241110 47.519600 0.000000 65.806702 0.000000 -35.617802 4.504330 -32.951698 -1.658258 -7.548358 -6.724084 0.000000 0.000000 17.440201 -6.383517 5.059527 -5.505216 0.000000 0.000000 -10.432720 3.712363 8.579129 -23.771978 0.000000 0.000000 7.684110 11.815196 -11.328795 12.049480 0.000000 0.000000 -25.288300 
-16.284428 9.029812 36.423973 -174.852082 -4.197631 -179.201805 3.744447 -3.844785 -12.071075 -1.998418 8.672716 28.061477 0.000000 0.000000 0.000000 -16.074723 16.122145 22.152017 -27.400118 10.066091 -74.253771 -20.971701 3.379150 3.973250 -36.977200 15.345000 34.350006 0.000000 -74.786003 0.000000 29.062500 -3.209240 -15.971900 24.781601 -6.021070 0.249557 32.401501 -9.520820 46.659000 0.000000 65.852501 0.000000 -36.427299 4.578350 -33.513901 -0.901644 -7.340020 -7.026465 0.000000 0.000000 17.188999 -7.177900 4.161350 -5.554289 0.000000 0.000000 -10.582970 3.094886 8.672400 -24.180907 0.000000 0.000000 9.860020 10.318984 -12.130474 12.511494 0.000000 0.000000 -25.097600 
-16.268700 9.044006 36.420010 -174.290305 -4.492336 -179.036522 3.838772 -3.758782 -12.024852 -2.068036 8.663583 27.866103 0.000000 0.000000 0.000000 -15.695036 15.638827 22.422846 -27.481311 10.035363 -74.387201 -21.156900 3.347850 3.973040 -37.016602 14.732400 34.489990 0.000000 -74.799202 0.000000 29.346500 -3.287660 -15.494600 24.893700 -6.209770 0.007890 32.255100 -9.616470 46.200199 0.000000 65.885300 0.000000 -38.026798 6.083290 -30.365700 -0.181734 -6.572398 -7.312185 0.000000 0.000000 17.289600 -7.113628 3.178156 -5.487766 0.000000 0.000000 -10.762630 2.419723 9.380276 -24.318353 0.000000 0.000000 12.192400 9.143125 -13.155976 12.789286 0.000000 0.000000 -24.859290 
-16.252152 9.057837 36.412469 -173.763203 -4.821750 -178.934133 3.902683 -3.709460 -12.050324 -2.119696 8.653456 27.790200 0.000000 0.000000 0.000000 -15.347565 15.191072 22.658967 -27.596573 9.992994 -74.537677 -21.375500 3.265200 3.916200 -36.952702 14.132900 34.838989 0.000000 -74.701103 0.000000 29.000700 -3.178880 -15.399100 24.939800 -6.302310 -0.313777 32.097401 -9.742390 46.244801 0.000000 66.025597 0.000000 -39.168301 7.661210 -30.477200 0.475164 -7.139925 -7.362394 0.000000 0.000000 17.079700 -7.204650 3.409035 -5.476420 0.000000 0.000000 -10.766710 1.715895 10.481639 -24.326285 0.000000 0.000000 14.665600 8.817531 -14.170134 12.623343 0.000000 0.000000 -24.875520 
-16.232759 9.071020 36.400943 -173.286393 -5.137749 -178.781863 3.888705 -3.696843 -12.183340 -2.109597 8.685119 27.778131 0.000000 0.000000 0.000000 -14.972113 14.663743 22.801403 -27.636433 9.868192 -74.700885 -21.676800 3.199320 4.012980 -36.824600 13.371500 35.161011 0.000000 -74.366898 0.000000 29.232000 -3.092490 -14.897300 25.050200 -6.407760 -0.356331 31.869200 -9.667620 46.324902 0.000000 66.428802 0.000000 -39.336800 8.017180 -29.026501 1.109946 -7.513425 -7.433589 0.000000 0.000000 16.869801 -7.308832 3.457493 -5.480106 0.000000 0.000000 -10.752890 1.163630 11.538803 -24.278768 0.000000 0.000000 17.179899 9.155961 -14.837406 12.080009 0.000000 0.000000 -24.955990 
-16.211567 9.082461 36.385954 -172.868405 -5.296276 -178.586906 3.890174 -3.577891 -12.314878 -2.201843 8.748051 27.468371 0.000000 0.000000 0.000000 -15.007215 14.792034 23.260088 -27.421168 9.821721 -74.962246 -21.904301 2.992140 4.266460 -36.814999 12.819000 35.188995 0.000000 -73.772003 0.000000 29.595501 -3.133340 -14.129800 25.128599 -6.272530 -0.267698 31.727699 -9.814790 46.643799 0.000000 66.779900 0.000000 -38.534000 8.383080 -29.709900 1.708711 -7.546977 -7.475673 0.000000 0.000000 16.613501 -7.468757 3.256488 -5.513330 0.000000 0.000000 -10.744490 0.702745 12.822685 -24.167186 0.000000 0.000000 19.576099 9.212875 -15.329872 11.548708 0.000000 0.000000 -24.394440 
-16.191858 9.093304 36.367685 -172.498867 -5.409291 -178.251404 3.961678 -3.384071 -12.560659 -2.487801 8.766070 27.181871 0.000000 0.000000 0.000000 -14.546038 14.182591 23.543911 -27.442412 9.863208 -74.984974 -22.110600 2.994730 4.478550 -36.800400 12.114900 35.027008 0.000000 -72.973801 0.000000 29.555401 -3.149810 -13.810600 25.310101 -6.225710 -0.174986 31.494200 -9.655590 47.563400 0.000000 67.035103 0.000000 -36.424801 8.551210 -31.101700 2.270716 -7.865075 -7.559633 0.000000 0.000000 16.227200 -7.750410 3.324729 -5.567099 0.000000 0.000000 -10.723060 0.375050 13.863948 -24.068213 0.000000 0.000000 21.715000 9.055307 -15.310826 11.276881 0.000000 0.000000 -24.322570 
